<?xml version="1.0" encoding="UTF-8"?>
<!DOCTYPE svg PUBLIC "-//W3C//DTD SVG 1.1//EN" "http://www.w3.org/Graphics/SVG/1.1/DTD/svg11.dtd">
<svg xmlns="http://www.w3.org/2000/svg" version="1.1" width="512px" height="512px" style="shape-rendering:geometricPrecision; text-rendering:geometricPrecision; image-rendering:optimizeQuality; fill-rule:evenodd; clip-rule:evenodd" xmlns:xlink="http://www.w3.org/1999/xlink">
<g><path style="opacity:0.986" fill="#ff6319" d="M 240.5,-0.5 C 245.5,-0.5 250.5,-0.5 255.5,-0.5C 255.5,29.8333 255.5,60.1667 255.5,90.5C 250.5,90.5 245.5,90.5 240.5,90.5C 240.5,80.8333 240.5,71.1667 240.5,61.5C 154.496,72.3442 97.3295,118.677 69,200.5C 65.1496,213.585 62.6496,226.919 61.5,240.5C 71.1667,240.5 80.8333,240.5 90.5,240.5C 90.5,250.5 90.5,260.5 90.5,270.5C 80.8333,270.5 71.1667,270.5 61.5,270.5C 72.3735,356.528 118.707,413.695 200.5,442C 213.585,445.85 226.919,448.35 240.5,449.5C 240.5,439.833 240.5,430.167 240.5,420.5C 245.5,420.5 250.5,420.5 255.5,420.5C 255.5,450.833 255.5,481.167 255.5,511.5C 250.5,511.5 245.5,511.5 240.5,511.5C 240.5,501.167 240.5,490.833 240.5,480.5C 154.562,472.001 91.7283,429.668 52,353.5C 39.6702,327.181 32.5035,299.514 30.5,270.5C 20.1667,270.5 9.83333,270.5 -0.5,270.5C -0.5,260.5 -0.5,250.5 -0.5,240.5C 9.83333,240.5 20.1667,240.5 30.5,240.5C 38.9987,154.562 81.3321,91.7283 157.5,52C 183.819,39.6702 211.486,32.5035 240.5,30.5C 240.5,20.1667 240.5,9.83333 240.5,-0.5 Z"/></g>
<g><path style="opacity:1" fill="#f03800" d="M 255.5,-0.5 C 260.5,-0.5 265.5,-0.5 270.5,-0.5C 270.5,9.83333 270.5,20.1667 270.5,30.5C 357.349,39.1429 420.516,82.1429 460,159.5C 471.691,185.263 478.524,212.263 480.5,240.5C 490.833,240.5 501.167,240.5 511.5,240.5C 511.5,250.5 511.5,260.5 511.5,270.5C 501.167,270.5 490.833,270.5 480.5,270.5C 472.001,356.438 429.668,419.272 353.5,459C 327.181,471.33 299.514,478.497 270.5,480.5C 270.5,490.833 270.5,501.167 270.5,511.5C 265.5,511.5 260.5,511.5 255.5,511.5C 255.5,481.167 255.5,450.833 255.5,420.5C 260.5,420.5 265.5,420.5 270.5,420.5C 270.5,430.167 270.5,439.833 270.5,449.5C 340.801,441.455 393.301,406.788 428,345.5C 439.988,321.883 447.154,296.883 449.5,270.5C 439.833,270.5 430.167,270.5 420.5,270.5C 420.5,260.5 420.5,250.5 420.5,240.5C 430.167,240.5 439.833,240.5 449.5,240.5C 442.622,175.54 411.955,125.374 357.5,90C 330.744,73.8037 301.744,64.3037 270.5,61.5C 270.5,71.1667 270.5,80.8333 270.5,90.5C 265.5,90.5 260.5,90.5 255.5,90.5C 255.5,60.1667 255.5,29.8333 255.5,-0.5 Z"/></g>
<g><path style="opacity:0.991" fill="#4a686e" d="M 255.5,142.5 C 255.832,180.004 255.498,217.337 254.5,254.5C 230.17,231.671 205.67,209.005 181,186.5C 180.501,191.823 180.334,197.156 180.5,202.5C 171.854,194.188 163.187,185.855 154.5,177.5C 148.167,183.5 141.833,189.5 135.5,195.5C 128.014,188.515 120.681,181.348 113.5,174C 126.833,160.667 140.167,147.333 153.5,134C 154.5,133.333 155.5,133.333 156.5,134C 170.667,148.167 184.833,162.333 199,176.5C 208.912,171.461 218.746,166.294 228.5,161C 219.986,152.652 211.652,144.152 203.5,135.5C 210.319,128.181 217.319,121.014 224.5,114C 225.167,113.333 225.833,113.333 226.5,114C 236.035,123.702 245.702,133.202 255.5,142.5 Z"/></g>
<g><path style="opacity:1" fill="#384949" d="M 330.5,202.5 C 330.666,197.156 330.499,191.823 330,186.5C 305.597,210.073 280.764,233.073 255.5,255.5C 254.833,255.5 254.5,255.167 254.5,254.5C 255.498,217.337 255.832,180.004 255.5,142.5C 265.298,133.202 274.965,123.702 284.5,114C 285.167,113.333 285.833,113.333 286.5,114C 293.681,121.014 300.681,128.181 307.5,135.5C 299.348,144.152 291.014,152.652 282.5,161C 292.254,166.294 302.088,171.461 312,176.5C 326.167,162.333 340.333,148.167 354.5,134C 355.5,133.333 356.5,133.333 357.5,134C 370.833,147.333 384.167,160.667 397.5,174C 390.319,181.348 382.986,188.515 375.5,195.5C 369.167,189.5 362.833,183.5 356.5,177.5C 347.813,185.855 339.146,194.188 330.5,202.5 Z"/></g>
<g><path style="opacity:0.998" fill="#fe641a" d="M 254.5,254.5 C 254.5,255.167 254.833,255.5 255.5,255.5C 255.5,302.833 255.5,350.167 255.5,397.5C 235.5,377.833 215.5,358.167 195.5,338.5C 191.265,332.758 186.432,327.425 181,322.5C 180.501,317.845 180.334,313.179 180.5,308.5C 180.5,295.833 180.5,283.167 180.5,270.5C 180.5,260.5 180.5,250.5 180.5,240.5C 180.5,227.833 180.5,215.167 180.5,202.5C 180.334,197.156 180.501,191.823 181,186.5C 205.67,209.005 230.17,231.671 254.5,254.5 Z"/></g>
<g><path style="opacity:0.998" fill="#ef3800" d="M 330.5,202.5 C 330.5,215.167 330.5,227.833 330.5,240.5C 330.5,250.5 330.5,260.5 330.5,270.5C 330.5,283.167 330.5,295.833 330.5,308.5C 330.666,313.179 330.499,317.845 330,322.5C 324.568,327.425 319.735,332.758 315.5,338.5C 295.5,358.167 275.5,377.833 255.5,397.5C 255.5,350.167 255.5,302.833 255.5,255.5C 280.764,233.073 305.597,210.073 330,186.5C 330.499,191.823 330.666,197.156 330.5,202.5 Z"/></g>
<g><path style="opacity:1" fill="#4a696e" d="M 180.5,240.5 C 180.5,250.5 180.5,260.5 180.5,270.5C 171.5,270.5 162.5,270.5 153.5,270.5C 153.5,279.5 153.5,288.5 153.5,297.5C 143.5,297.5 133.5,297.5 123.5,297.5C 123.5,278.5 123.5,259.5 123.5,240.5C 142.5,240.5 161.5,240.5 180.5,240.5 Z"/></g>
<g><path style="opacity:1" fill="#374948" d="M 330.5,240.5 C 349.5,240.5 368.5,240.5 387.5,240.5C 387.5,259.5 387.5,278.5 387.5,297.5C 377.5,297.5 367.5,297.5 357.5,297.5C 357.5,288.5 357.5,279.5 357.5,270.5C 348.5,270.5 339.5,270.5 330.5,270.5C 330.5,260.5 330.5,250.5 330.5,240.5 Z"/></g>
<g><path style="opacity:0.984" fill="#49686f" d="M 180.5,308.5 C 180.334,313.179 180.501,317.845 181,322.5C 186.432,327.425 191.265,332.758 195.5,338.5C 189.188,344.146 183.188,350.146 177.5,356.5C 183.5,362.833 189.5,369.167 195.5,375.5C 188.515,382.986 181.348,390.319 174,397.5C 160.667,384.167 147.333,370.833 134,357.5C 133.333,356.5 133.333,355.5 134,354.5C 149.368,338.965 164.868,323.632 180.5,308.5 Z"/></g>
<g><path style="opacity:0.969" fill="#384848" d="M 330.5,308.5 C 346.132,323.632 361.632,338.965 377,354.5C 377.667,355.5 377.667,356.5 377,357.5C 363.667,370.833 350.333,384.167 337,397.5C 329.652,390.319 322.485,382.986 315.5,375.5C 321.5,369.167 327.5,362.833 333.5,356.5C 327.812,350.146 321.812,344.146 315.5,338.5C 319.735,332.758 324.568,327.425 330,322.5C 330.499,317.845 330.666,313.179 330.5,308.5 Z"/></g>
</svg>
