<?xml version="1.0" encoding="UTF-8"?>
<!DOCTYPE svg PUBLIC "-//W3C//DTD SVG 1.1//EN" "http://www.w3.org/Graphics/SVG/1.1/DTD/svg11.dtd">
<svg xmlns="http://www.w3.org/2000/svg" version="1.1" width="512px" height="512px" style="shape-rendering:geometricPrecision; text-rendering:geometricPrecision; image-rendering:optimizeQuality; fill-rule:evenodd; clip-rule:evenodd" xmlns:xlink="http://www.w3.org/1999/xlink">
<g><path style="opacity:0.96" fill="#ffd05b" d="M 250.5,-0.5 C 253.833,-0.5 257.167,-0.5 260.5,-0.5C 263.2,1.04602 265.033,3.37935 266,6.5C 266.667,21.1667 266.667,35.8333 266,50.5C 262.352,57.4212 256.852,59.2545 249.5,56C 247.622,54.4571 246.122,52.6238 245,50.5C 244.333,35.8333 244.333,21.1667 245,6.5C 245.967,3.37935 247.8,1.04602 250.5,-0.5 Z"/></g>
<g><path style="opacity:0.943" fill="#fed15b" d="M 104.5,60.5 C 106.924,61.0305 109.257,61.8638 111.5,63C 121,72.5 130.5,82 140,91.5C 143.874,101.122 140.707,106.789 130.5,108.5C 128.366,108.485 126.366,107.985 124.5,107C 115,97.5 105.5,88 96,78.5C 92.0665,69.3651 94.8999,63.3651 104.5,60.5 Z"/></g>
<g><path style="opacity:0.943" fill="#fed15b" d="M 404.5,60.5 C 415.573,62.3275 419.073,68.3275 415,78.5C 405.5,88 396,97.5 386.5,107C 379.786,109.973 374.286,108.473 370,102.5C 369.163,98.7054 369.496,95.0387 371,91.5C 380.5,82 390,72.5 399.5,63C 401.315,62.2432 402.981,61.4098 404.5,60.5 Z"/></g>
<g><path style="opacity:0.991" fill="#ffd15c" d="M 314.5,390.5 C 300.343,389.504 286.01,389.171 271.5,389.5C 285.517,334.766 299.85,280.099 314.5,225.5C 314.101,222.935 312.601,221.601 310,221.5C 307.336,221.749 305.169,222.915 303.5,225C 300.833,225.667 298.167,225.667 295.5,225C 283.731,213.772 272.064,213.772 260.5,225C 257.833,225.667 255.167,225.667 252.5,225C 249.5,222.667 246.5,220.333 243.5,218C 238.589,216.508 233.589,216.174 228.5,217C 224.553,219.28 220.887,221.947 217.5,225C 214.833,225.667 212.167,225.667 209.5,225C 207.547,223.367 205.38,222.201 203,221.5C 200.624,221.543 199.124,222.709 198.5,225C 212.425,279.868 226.425,334.701 240.5,389.5C 225.99,389.171 211.657,389.504 197.5,390.5C 193.034,378.57 187.2,367.237 180,356.5C 166.641,342.142 152.975,328.142 139,314.5C 106.736,269.908 99.7363,221.575 118,169.5C 144.406,109.952 190.24,78.6189 255.5,75.5C 323.209,78.9131 369.709,111.913 395,174.5C 410.678,225.099 403.011,271.766 372,314.5C 361.667,326.167 350.667,337.167 339,347.5C 328.234,360.366 320.068,374.699 314.5,390.5 Z"/></g>
<g><path style="opacity:0.955" fill="#ffd15b" d="M 39.5,211.5 C 53.8372,211.333 68.1705,211.5 82.5,212C 89.8,215.438 91.9666,220.938 89,228.5C 87.3626,230.81 85.196,232.31 82.5,233C 68.5,233.667 54.5,233.667 40.5,233C 33.3722,230.242 30.8722,225.076 33,217.5C 34.4936,214.686 36.6603,212.686 39.5,211.5 Z"/></g>
<g><path style="opacity:0.959" fill="#ffd05b" d="M 427.5,211.5 C 442.17,211.333 456.837,211.5 471.5,212C 478.132,215.097 480.299,220.264 478,227.5C 476.127,229.709 473.96,231.542 471.5,233C 457.167,233.667 442.833,233.667 428.5,233C 420.663,229.816 418.496,224.316 422,216.5C 423.73,214.598 425.563,212.931 427.5,211.5 Z"/></g>
<g><path style="opacity:1" fill="#fffdfa" d="M 271.5,389.5 C 268.167,389.5 264.833,389.5 261.5,389.5C 274.989,338.543 288.323,287.543 301.5,236.5C 302.404,235.791 302.737,234.791 302.5,233.5C 299.833,233.5 297.167,233.5 294.5,233.5C 289.612,232.053 285.279,229.553 281.5,226C 279.722,225.296 277.888,224.796 276,224.5C 271.205,227.272 266.372,230.105 261.5,233C 252.561,235.431 245.228,233.098 239.5,226C 236.634,224.543 233.634,224.21 230.5,225C 226.087,228.922 221.087,231.756 215.5,233.5C 213.167,233.5 210.833,233.5 208.5,233.5C 208.263,234.791 208.596,235.791 209.5,236.5C 223.011,287.544 236.678,338.544 250.5,389.5C 247.167,389.5 243.833,389.5 240.5,389.5C 226.425,334.701 212.425,279.868 198.5,225C 199.124,222.709 200.624,221.543 203,221.5C 205.38,222.201 207.547,223.367 209.5,225C 212.167,225.667 214.833,225.667 217.5,225C 220.887,221.947 224.553,219.28 228.5,217C 233.589,216.174 238.589,216.508 243.5,218C 246.5,220.333 249.5,222.667 252.5,225C 255.167,225.667 257.833,225.667 260.5,225C 272.064,213.772 283.731,213.772 295.5,225C 298.167,225.667 300.833,225.667 303.5,225C 305.169,222.915 307.336,221.749 310,221.5C 312.601,221.601 314.101,222.935 314.5,225.5C 299.85,280.099 285.517,334.766 271.5,389.5 Z"/></g>
<g><path style="opacity:1" fill="#ffd15c" d="M 294.5,233.5 C 297.159,233.917 299.492,234.917 301.5,236.5C 288.323,287.543 274.989,338.543 261.5,389.5C 257.833,389.5 254.167,389.5 250.5,389.5C 236.678,338.544 223.011,287.544 209.5,236.5C 211.156,234.94 213.156,233.94 215.5,233.5C 221.087,231.756 226.087,228.922 230.5,225C 233.634,224.21 236.634,224.543 239.5,226C 245.228,233.098 252.561,235.431 261.5,233C 266.372,230.105 271.205,227.272 276,224.5C 277.888,224.796 279.722,225.296 281.5,226C 285.279,229.553 289.612,232.053 294.5,233.5 Z"/></g>
<g><path style="opacity:1" fill="#ffebb9" d="M 215.5,233.5 C 213.156,233.94 211.156,234.94 209.5,236.5C 208.596,235.791 208.263,234.791 208.5,233.5C 210.833,233.5 213.167,233.5 215.5,233.5 Z"/></g>
<g><path style="opacity:1" fill="#ffeab8" d="M 294.5,233.5 C 297.167,233.5 299.833,233.5 302.5,233.5C 302.737,234.791 302.404,235.791 301.5,236.5C 299.492,234.917 297.159,233.917 294.5,233.5 Z"/></g>
<g><path style="opacity:0.952" fill="#ffd15b" d="M 126.5,336.5 C 139.122,335.751 143.622,341.418 140,353.5C 130.5,363 121,372.5 111.5,382C 101.957,385.895 95.9569,382.895 93.5,373C 94.2546,370.825 95.088,368.659 96,366.5C 106.062,356.271 116.228,346.271 126.5,336.5 Z"/></g>
<g><path style="opacity:0.942" fill="#fed15b" d="M 375.5,336.5 C 379.308,336.163 382.974,336.663 386.5,338C 396,347.5 405.5,357 415,366.5C 418.139,372.154 417.306,377.321 412.5,382C 408.167,384 403.833,384 399.5,382C 390,372.5 380.5,363 371,353.5C 367.931,346.46 369.431,340.793 375.5,336.5 Z"/></g>
<g><path style="opacity:0.994" fill="#394d5e" d="M 240.5,389.5 C 243.833,389.5 247.167,389.5 250.5,389.5C 254.167,389.5 257.833,389.5 261.5,389.5C 264.833,389.5 268.167,389.5 271.5,389.5C 286.01,389.171 300.343,389.504 314.5,390.5C 314.5,395.833 314.5,401.167 314.5,406.5C 275.5,406.5 236.5,406.5 197.5,406.5C 197.5,401.167 197.5,395.833 197.5,390.5C 211.657,389.504 225.99,389.171 240.5,389.5 Z"/></g>
<g><path style="opacity:0.994" fill="#40596a" d="M 197.5,406.5 C 236.5,406.5 275.5,406.5 314.5,406.5C 324.823,410.138 327.489,416.805 322.5,426.5C 320.358,428.905 317.691,430.238 314.5,430.5C 275.5,430.5 236.5,430.5 197.5,430.5C 186.497,428.214 183.33,421.88 188,411.5C 190.541,408.646 193.708,406.979 197.5,406.5 Z"/></g>
<g><path style="opacity:0.994" fill="#344a5e" d="M 197.5,430.5 C 236.5,430.5 275.5,430.5 314.5,430.5C 314.5,435.167 314.5,439.833 314.5,444.5C 275.33,444.832 236.33,444.499 197.5,443.5C 197.5,439.167 197.5,434.833 197.5,430.5 Z"/></g>
<g><path style="opacity:0.987" fill="#415a6a" d="M 197.5,443.5 C 236.33,444.499 275.33,444.832 314.5,444.5C 321.175,445.29 324.842,449.123 325.5,456C 324.995,463.003 321.328,466.836 314.5,467.5C 275.33,467.168 236.33,467.501 197.5,468.5C 190.3,467.466 186.3,463.299 185.5,456C 186.3,448.701 190.3,444.534 197.5,443.5 Z"/></g>
<g><path style="opacity:0.983" fill="#344a5e" d="M 314.5,467.5 C 314.123,484.225 305.456,492.059 288.5,491C 282.823,501.159 274.489,507.993 263.5,511.5C 258.167,511.5 252.833,511.5 247.5,511.5C 236.511,507.993 228.177,501.159 222.5,491C 206.664,491.658 198.33,484.158 197.5,468.5C 236.33,467.501 275.33,467.168 314.5,467.5 Z"/></g>
</svg>
