<?xml version="1.0" encoding="UTF-8"?>
<!DOCTYPE svg PUBLIC "-//W3C//DTD SVG 1.1//EN" "http://www.w3.org/Graphics/SVG/1.1/DTD/svg11.dtd">
<svg xmlns="http://www.w3.org/2000/svg" version="1.1" width="512px" height="512px" style="shape-rendering:geometricPrecision; text-rendering:geometricPrecision; image-rendering:optimizeQuality; fill-rule:evenodd; clip-rule:evenodd" xmlns:xlink="http://www.w3.org/1999/xlink">
<g><path style="opacity:0.989" fill="#231f20" d="M 233.5,15.5 C 326.676,10.6799 400.51,45.6799 455,120.5C 500.8,193.045 508.133,269.379 477,349.5C 441.926,426.813 382.76,474.313 299.5,492C 208.454,505.657 132.287,478.491 71,410.5C 18.3115,343.73 2.97817,269.063 25,186.5C 51.5,105.333 105.333,51.5 186.5,25C 202.057,20.5889 217.723,17.4223 233.5,15.5 Z"/></g>
<g><path style="opacity:1" fill="#2487fe" d="M 413.5,97.5 C 370.527,140.806 327.527,184.14 284.5,227.5C 263.427,210.544 243.26,211.544 224,230.5C 211.925,249.359 213.092,267.359 227.5,284.5C 183.78,327.22 140.447,370.22 97.5,413.5C 61.4239,377.68 39.9239,334.346 33,283.5C 25.3772,202.333 52.2105,135.166 113.5,82C 181.623,29.6478 256.289,17.9812 337.5,47C 366.441,58.6211 391.774,75.4544 413.5,97.5 Z"/></g>
<g><path style="opacity:1" fill="#232024" d="M 237.5,47.5 C 245.253,47.1039 252.92,47.6039 260.5,49C 263.848,52.4186 264.348,56.252 262,60.5C 260.829,61.8932 259.329,62.7265 257.5,63C 249.395,63.9345 241.395,63.6011 233.5,62C 229.935,55.7459 231.269,50.9126 237.5,47.5 Z"/></g>
<g><path style="opacity:1" fill="#232022" d="M 203.5,53.5 C 214.664,53.1817 217.664,57.8484 212.5,67.5C 140.337,87.4964 92.8366,133.163 70,204.5C 68.4114,210.443 67.0781,216.443 66,222.5C 64.351,235.151 63.0176,247.817 62,260.5C 58.4983,263.601 54.665,264.101 50.5,262C 49.1068,260.829 48.2735,259.329 48,257.5C 48.8481,185.969 77.6815,128.802 134.5,86C 155.767,71.3654 178.767,60.5321 203.5,53.5 Z"/></g>
<g><path style="opacity:1" fill="#006cef" d="M 413.5,97.5 C 461.227,145.815 483.06,204.148 479,272.5C 471.007,348.745 434.841,407.245 370.5,448C 306.168,483.966 239.501,488.966 170.5,463C 142.673,451.437 118.34,434.937 97.5,413.5C 140.447,370.22 183.78,327.22 227.5,284.5C 245.043,298.601 263.043,299.101 281.5,286C 298.826,267.272 299.826,247.772 284.5,227.5C 327.527,184.14 370.527,140.806 413.5,97.5 Z"/></g>
<g><path style="opacity:1" fill="#242021" d="M 151.5,215.5 C 182.569,214.741 198.402,229.741 199,260.5C 193.063,285.418 177.229,296.918 151.5,295C 128.255,287.735 117.755,271.901 120,247.5C 124.683,230.985 135.183,220.318 151.5,215.5 Z"/></g>
<g><path style="opacity:1" fill="#232021" d="M 284.5,227.5 C 299.826,247.772 298.826,267.272 281.5,286C 263.043,299.101 245.043,298.601 227.5,284.5C 213.092,267.359 211.925,249.359 224,230.5C 243.26,211.544 263.427,210.544 284.5,227.5 Z"/></g>
<g><path style="opacity:1" fill="#232021" d="M 343.5,215.5 C 374.559,214.731 390.393,229.731 391,260.5C 385.063,285.418 369.229,296.918 343.5,295C 320.244,287.726 309.744,271.893 312,247.5C 316.683,230.985 327.183,220.318 343.5,215.5 Z"/></g>
<g><path style="opacity:1" fill="#fcca00" d="M 153.5,231.5 C 168.153,229.738 177.987,235.738 183,249.5C 185.252,264.166 179.419,273.999 165.5,279C 150.316,281.326 140.483,275.16 136,260.5C 134.099,249.798 137.599,241.298 146.5,235C 148.925,233.787 151.259,232.621 153.5,231.5 Z"/></g>
<g><path style="opacity:1" fill="#fcca00" d="M 249.5,231.5 C 264.153,229.738 273.987,235.738 279,249.5C 281.252,264.166 275.419,273.999 261.5,279C 246.316,281.326 236.483,275.16 232,260.5C 230.099,249.798 233.599,241.298 242.5,235C 244.925,233.787 247.259,232.621 249.5,231.5 Z"/></g>
<g><path style="opacity:1" fill="#fcca00" d="M 345.5,231.5 C 360.153,229.738 369.987,235.738 375,249.5C 377.252,264.166 371.419,273.999 357.5,279C 342.316,281.326 332.483,275.16 328,260.5C 326.099,249.798 329.599,241.298 338.5,235C 340.925,233.787 343.259,232.621 345.5,231.5 Z"/></g>
</svg>
